<?xml version="1.0" encoding="utf-8"?>
<!-- Generator: Adobe Illustrator 24.1.3, SVG Export Plug-In . SVG Version: 6.00 Build 0)  -->
<svg version="1.1" id="Layer_1" xmlns="http://www.w3.org/2000/svg" xmlns:xlink="http://www.w3.org/1999/xlink" x="0px" y="0px"
	 viewBox="0 0 700 340" style="enable-background:new 0 0 700 340;" xml:space="preserve">
<style type="text/css">
	.st0{fill:#FFFFFF;}
	.st1{fill:#FFECCC;}
	.st2{fill:#4B9793;}
	.st3{fill:#F97254;}
	.st4{clip-path:url(#SVGID_4_);fill:none;stroke:#F45238;stroke-width:2;stroke-miterlimit:10;}
	.st5{fill:none;stroke:#043A46;stroke-width:0.2917;stroke-miterlimit:10;}
	.st6{fill:none;stroke:#043A46;stroke-width:0.2917;stroke-linecap:round;stroke-miterlimit:10;}
	.st7{fill:#EF799B;}
	.st8{fill:#8CA39B;}
	.st9{fill:#38162F;}
	.st10{fill:#2A6E70;}
	.st11{fill:none;stroke:#EF799B;stroke-width:0.5833;stroke-miterlimit:10;}
	.st12{opacity:0.5;fill:#F87154;enable-background:new    ;}
	.st13{fill:none;stroke:#E7597C;stroke-width:0.5;stroke-miterlimit:10;}
	.st14{fill:#E7597C;}
	.st15{fill:#190315;}
	.st16{fill:#AEC1B9;}
	.st17{clip-path:url(#SVGID_8_);fill:none;stroke:#8CA39B;stroke-width:0.274;stroke-miterlimit:10;}
	.st18{clip-path:url(#SVGID_11_);fill:none;stroke:#8CA39B;stroke-width:0.274;stroke-miterlimit:10;}
	.st19{clip-path:url(#SVGID_14_);fill:none;stroke:#8CA39B;stroke-width:0.274;stroke-miterlimit:10;}
	.st20{clip-path:url(#SVGID_17_);fill:none;stroke:#8CA39B;stroke-width:0.274;stroke-miterlimit:10;}
	.st21{clip-path:url(#SVGID_19_);fill:none;stroke:#8CA39B;stroke-width:0.274;stroke-miterlimit:10;}
	.st22{clip-path:url(#SVGID_21_);fill:none;stroke:#8CA39B;stroke-width:0.274;stroke-miterlimit:10;}
	
		.st23{opacity:0.5;clip-path:url(#SVGID_23_);fill:none;stroke:#8CA39B;stroke-width:0.274;stroke-miterlimit:10;enable-background:new    ;}
	.st24{clip-path:url(#SVGID_25_);fill:none;stroke:#8CA39B;stroke-width:0.274;stroke-miterlimit:10;}
	.st25{clip-path:url(#SVGID_27_);fill:none;stroke:#8CA39B;stroke-width:0.274;stroke-miterlimit:10;}
	.st26{clip-path:url(#SVGID_29_);fill:none;stroke:#8CA39B;stroke-width:0.274;stroke-miterlimit:10;}
	.st27{clip-path:url(#SVGID_31_);fill:none;stroke:#8CA39B;stroke-width:0.274;stroke-miterlimit:10;}
	.st28{clip-path:url(#SVGID_33_);fill:none;stroke:#8CA39B;stroke-width:0.274;stroke-miterlimit:10;}
	.st29{clip-path:url(#SVGID_35_);fill:none;stroke:#8CA39B;stroke-width:0.274;stroke-miterlimit:10;}
	
		.st30{opacity:0.5;clip-path:url(#SVGID_37_);fill:none;stroke:#8CA39B;stroke-width:0.274;stroke-miterlimit:10;enable-background:new    ;}
	.st31{clip-path:url(#SVGID_39_);fill:none;stroke:#F45238;stroke-width:2;stroke-miterlimit:10;}
	.st32{fill:#043A46;}
	.st33{fill:#FFFFFF;stroke:#000000;stroke-width:0.5833;stroke-miterlimit:10;}
	.st34{fill:none;stroke:#000000;stroke-width:0.5833;stroke-miterlimit:10;}
	.st35{fill:none;stroke:#2A6E70;stroke-width:0.2917;stroke-miterlimit:10;}
	.st36{fill:#F2B8B7;}
	.st37{fill:none;stroke:#38162F;stroke-width:1.1667;stroke-linecap:round;stroke-miterlimit:10;}
	.st38{fill:none;stroke:#F1EEE7;stroke-width:0.5833;stroke-miterlimit:10;}
	.st39{fill:#F1EEE7;}
	.st40{clip-path:url(#SVGID_41_);fill:none;stroke:#38162F;stroke-width:0.2917;stroke-miterlimit:10;}
	.st41{clip-path:url(#SVGID_43_);fill:none;stroke:#38162F;stroke-width:0.2917;stroke-miterlimit:10;}
	.st42{clip-path:url(#SVGID_45_);fill:none;stroke:#38162F;stroke-width:0.2917;stroke-miterlimit:10;}
	.st43{clip-path:url(#SVGID_47_);fill:none;stroke:#38162F;stroke-width:0.2917;stroke-miterlimit:10;}
	.st44{clip-path:url(#SVGID_49_);fill:none;stroke:#38162F;stroke-width:0.2917;stroke-miterlimit:10;}
	.st45{clip-path:url(#SVGID_51_);fill:none;stroke:#38162F;stroke-width:0.2917;stroke-miterlimit:10;}
	.st46{fill:#F45238;}
	.st47{fill:none;stroke:#38162F;stroke-width:0.2917;stroke-linecap:round;stroke-miterlimit:10;}
	.st48{fill:#032326;}
	.st49{fill:#DDD7CB;}
	.st50{opacity:0.2;fill:url(#SVGID_52_);enable-background:new    ;}
	.st51{fill:#F9D6A2;}
	.st52{fill:none;stroke:#190315;stroke-width:0.5833;stroke-miterlimit:10;}
	.st53{opacity:0.3;fill:url(#SVGID_53_);enable-background:new    ;}
	.st54{fill:none;stroke:#EF799B;stroke-width:0.5833;stroke-linecap:round;stroke-miterlimit:10;}
	.st55{clip-path:url(#SVGID_55_);fill:none;stroke:#FFECCC;stroke-width:1.1667;stroke-miterlimit:10;}
	.st56{clip-path:url(#SVGID_57_);fill:none;stroke:#FFECCC;stroke-width:1.1667;stroke-miterlimit:10;}
	.st57{clip-path:url(#SVGID_59_);fill:none;stroke:#FFECCC;stroke-width:1.1667;stroke-miterlimit:10;}
	.st58{clip-path:url(#SVGID_61_);fill:none;stroke:#FFECCC;stroke-width:1.1667;stroke-miterlimit:10;}
	.st59{clip-path:url(#SVGID_63_);fill:none;stroke:#FFECCC;stroke-width:1.1667;stroke-miterlimit:10;}
	.st60{clip-path:url(#SVGID_65_);fill:none;stroke:#FFECCC;stroke-width:1.1667;stroke-miterlimit:10;}
	.st61{clip-path:url(#SVGID_67_);fill:none;stroke:#FFECCC;stroke-width:1.1667;stroke-miterlimit:10;}
	.st62{clip-path:url(#SVGID_69_);fill:none;stroke:#FFECCC;stroke-width:1.1667;stroke-miterlimit:10;}
	.st63{clip-path:url(#SVGID_71_);fill:none;stroke:#FFECCC;stroke-width:1.1667;stroke-miterlimit:10;}
	.st64{clip-path:url(#SVGID_73_);fill:none;stroke:#FFECCC;stroke-width:1.1667;stroke-miterlimit:10;}
	.st65{clip-path:url(#SVGID_75_);fill:none;stroke:#FFECCC;stroke-width:1.1667;stroke-miterlimit:10;}
	.st66{clip-path:url(#SVGID_77_);fill:none;stroke:#FFECCC;stroke-width:1.1667;stroke-miterlimit:10;}
	.st67{clip-path:url(#SVGID_79_);fill:none;stroke:#FFECCC;stroke-width:1.1667;stroke-miterlimit:10;}
	.st68{clip-path:url(#SVGID_81_);fill:none;stroke:#FFECCC;stroke-width:1.1667;stroke-miterlimit:10;}
	.st69{clip-path:url(#SVGID_83_);fill:none;stroke:#FFECCC;stroke-width:1.1667;stroke-miterlimit:10;}
	.st70{clip-path:url(#SVGID_85_);fill:none;stroke:#FFECCC;stroke-width:1.1667;stroke-miterlimit:10;}
	.st71{clip-path:url(#SVGID_87_);fill:none;stroke:#FFECCC;stroke-width:1.1667;stroke-miterlimit:10;}
	.st72{clip-path:url(#SVGID_89_);fill:none;stroke:#FFECCC;stroke-width:1.1667;stroke-miterlimit:10;}
	.st73{clip-path:url(#SVGID_91_);fill:none;stroke:#FFECCC;stroke-width:1.1667;stroke-miterlimit:10;}
	.st74{clip-path:url(#SVGID_93_);fill:none;stroke:#FFECCC;stroke-width:1.1667;stroke-miterlimit:10;}
	.st75{clip-path:url(#SVGID_95_);fill:none;stroke:#FFECCC;stroke-width:1.1667;stroke-miterlimit:10;}
	.st76{clip-path:url(#SVGID_97_);fill:none;stroke:#FFECCC;stroke-width:1.1667;stroke-miterlimit:10;}
	.st77{clip-path:url(#SVGID_99_);fill:none;stroke:#FFECCC;stroke-width:1.1667;stroke-miterlimit:10;}
	.st78{clip-path:url(#SVGID_101_);fill:none;stroke:#EF799B;stroke-width:0.5833;stroke-linecap:round;stroke-miterlimit:10;}
	.st79{opacity:0.5;fill:none;stroke:#8CA39B;stroke-width:0.5833;stroke-miterlimit:10;enable-background:new    ;}
	.st80{opacity:0.5;fill:none;stroke:#2A6E70;stroke-width:0.5833;stroke-miterlimit:10;enable-background:new    ;}
	.st81{fill:none;stroke:#4B9793;stroke-width:0.5833;stroke-linecap:round;stroke-miterlimit:10;}
	.st82{opacity:0.9;fill:url(#SVGID_102_);enable-background:new    ;}
	.st83{fill:none;stroke:#F7B7B8;stroke-width:0.5833;stroke-miterlimit:10;}
	.st84{fill:none;stroke:#38162F;stroke-width:0.5833;stroke-miterlimit:10;}
	.st85{fill:none;stroke:#190315;stroke-width:4.0833;stroke-linecap:round;stroke-miterlimit:10;}
	.st86{fill:none;}
</style>
<rect class="st0" width="700" height="247.3"/>
<g>
	<rect y="223.4" class="st1" width="700" height="116.7"/>
	<g>
		<path class="st2" d="M625.9,177.9L625.9,177.9c-6.9,0-12.6,5.7-12.6,12.6v20.1h25.1v-20.1C638.5,183.5,632.8,177.9,625.9,177.9z"
			/>
		<g>
			<g>
				<polygon id="SVGID_1_" class="st3" points="640.2,244.5 611.6,244.5 602.3,207.7 649.5,207.7 				"/>
			</g>
			<g>
				<g>
					<g>
						<defs>
							<polygon id="SVGID_2_" points="640.2,244.5 611.6,244.5 602.3,207.7 649.5,207.7 							"/>
						</defs>
						<clipPath id="SVGID_4_">
							<use xlink:href="#SVGID_2_"  style="overflow:visible;"/>
						</clipPath>
						<line class="st4" x1="604.1" y1="215.9" x2="648.1" y2="215.9"/>
					</g>
				</g>
			</g>
		</g>
		<line class="st5" x1="625.9" y1="177.9" x2="625.9" y2="207.7"/>
		<line class="st5" x1="630.2" y1="178.6" x2="630.2" y2="207.7"/>
		<line class="st5" x1="634.5" y1="181.3" x2="634.5" y2="207.7"/>
		<line class="st5" x1="621.6" y1="178.6" x2="621.6" y2="207.7"/>
		<line class="st5" x1="617.3" y1="181.3" x2="617.3" y2="207.7"/>
		<line class="st6" x1="637.1" y1="189.7" x2="640.1" y2="188.5"/>
		<line class="st6" x1="637" y1="198.4" x2="640.2" y2="199"/>
		<line class="st6" x1="632.6" y1="194.2" x2="635.8" y2="194.7"/>
		<line class="st6" x1="628.6" y1="199.2" x2="631.8" y2="199.7"/>
		<line class="st6" x1="628.3" y1="190.7" x2="631.5" y2="191.2"/>
		<line class="st6" x1="632.8" y1="202.6" x2="635.6" y2="204.3"/>
		<line class="st6" x1="632.9" y1="186.5" x2="636" y2="185.4"/>
		<line class="st6" x1="632.6" y1="180.8" x2="634.8" y2="178.3"/>
		<line class="st6" x1="628.6" y1="179.3" x2="629.9" y2="176.3"/>
		<line class="st6" x1="612.5" y1="186.5" x2="615.8" y2="188.6"/>
		<line class="st6" x1="611.7" y1="196.2" x2="615.2" y2="196.4"/>
		<line class="st6" x1="617.6" y1="182.5" x2="620.1" y2="184.4"/>
		<line class="st6" x1="619.2" y1="176.9" x2="620.8" y2="180.4"/>
		<line class="st6" x1="613.9" y1="182.7" x2="615.9" y2="185.2"/>
		<line class="st6" x1="618.8" y1="195" x2="622.5" y2="195.2"/>
		<line class="st6" x1="623.3" y1="180.7" x2="623.9" y2="183.9"/>
		<line class="st6" x1="620" y1="204.5" x2="623.6" y2="203.1"/>
		<line class="st6" x1="612.3" y1="204.7" x2="615.6" y2="202.9"/>
	</g>
	
		<ellipse transform="matrix(0.4641 -0.8858 0.8858 0.4641 14.7858 609.0133)" class="st7" cx="510.7" cy="292.3" rx="19.9" ry="19.9"/>
	<g>
		<rect x="537.6" y="156.7" class="st8" width="13.1" height="87.8"/>
		<rect x="550.7" y="158.5" class="st9" width="7.6" height="86"/>
		<rect x="558.3" y="161.3" class="st3" width="14" height="83.2"/>
		<rect x="572.3" y="164.8" class="st10" width="12.7" height="79.7"/>
		<rect x="585" y="167.7" class="st2" width="14.5" height="76.8"/>
		<g>
			<rect x="524.5" y="166.9" class="st9" width="13.1" height="77.6"/>
			<line class="st11" x1="524.5" y1="171.8" x2="537.6" y2="171.8"/>
			<line class="st11" x1="524.5" y1="239.6" x2="537.6" y2="239.6"/>
			<path class="st7" d="M531.1,234.8L531.1,234.8c-1.6,0-2.9-1.3-2.9-2.9v-52.5c0-1.6,1.3-2.9,2.9-2.9l0,0c1.6,0,2.9,1.3,2.9,2.9
				v52.5C534,233.5,532.7,234.8,531.1,234.8z"/>
		</g>
		<rect x="537.6" y="159.4" class="st10" width="13.1" height="2.7"/>
		<rect x="537.6" y="197.6" class="st10" width="13.1" height="46.9"/>
		<rect x="558.3" y="165" class="st12" width="14" height="2"/>
		<rect x="558.3" y="238.7" class="st12" width="14" height="2"/>
		<rect x="563.4" y="172.2" class="st12" width="3.8" height="61.5"/>
		<g>
			<rect x="572.4" y="169.2" class="st1" width="12.7" height="1.5"/>
			<rect x="572.4" y="238.6" class="st1" width="12.7" height="1.5"/>
		</g>
		<path class="st10" d="M592.3,238.9L592.3,238.9c-1.5,0-2.7-1.2-2.7-2.7v-60.3c0-1.5,1.2-2.7,2.7-2.7l0,0c1.5,0,2.7,1.2,2.7,2.7
			v60.3C595,237.7,593.8,238.9,592.3,238.9z"/>
	</g>
	
		<ellipse transform="matrix(0.4641 -0.8858 0.8858 0.4641 14.7858 609.0133)" class="st13" cx="510.7" cy="292.3" rx="18.4" ry="18.4"/>
	<polygon class="st14" points="524.7,303 516.6,299 519.9,307.3 513.9,300.7 513.9,309.7 510.7,301.3 507.5,309.7 507.5,300.7 
		501.5,307.4 504.8,299 496.7,303 502.8,296.4 493.9,297.3 501.9,293.3 493.3,290.9 502.2,290.1 495,284.7 503.6,287.2 498.9,279.6 
		506,285 504.3,276.2 509.1,283.8 510.7,275 512.3,283.8 517,276.2 515.3,285 522.4,279.5 517.7,287.2 526.3,284.7 519.2,290.1 
		528.1,290.8 519.5,293.3 527.5,297.2 518.6,296.4 	"/>
	<g>
		<rect x="154.2" y="165.5" class="st15" width="2.9" height="79"/>
		<rect x="241.6" y="165.5" class="st15" width="2.9" height="79"/>
		<g>
			<g>
				<rect id="SVGID_3_" x="159.7" y="165.5" class="st16" width="79.3" height="10.7"/>
			</g>
			<g>
				<g>
					<g>
						<defs>
							<rect id="SVGID_6_" x="159.7" y="165.5" width="79.3" height="10.7"/>
						</defs>
						<clipPath id="SVGID_8_">
							<use xlink:href="#SVGID_6_"  style="overflow:visible;"/>
						</clipPath>
						<line class="st17" x1="159.1" y1="166.7" x2="240.3" y2="166.7"/>
					</g>
				</g>
			</g>
			<g>
				<g>
					<g>
						<defs>
							<rect id="SVGID_10_" x="159.7" y="165.5" width="79.3" height="10.7"/>
						</defs>
						<clipPath id="SVGID_11_">
							<use xlink:href="#SVGID_10_"  style="overflow:visible;"/>
						</clipPath>
						<line class="st18" x1="159.1" y1="167.7" x2="240.3" y2="167.7"/>
					</g>
				</g>
			</g>
			<g>
				<g>
					<g>
						<defs>
							<rect id="SVGID_12_" x="159.7" y="165.5" width="79.3" height="10.7"/>
						</defs>
						<clipPath id="SVGID_14_">
							<use xlink:href="#SVGID_12_"  style="overflow:visible;"/>
						</clipPath>
						<line class="st19" x1="159.1" y1="168.7" x2="240.3" y2="168.7"/>
					</g>
				</g>
			</g>
			<g>
				<g>
					<g>
						<defs>
							<rect id="SVGID_16_" x="159.7" y="165.5" width="79.3" height="10.7"/>
						</defs>
						<clipPath id="SVGID_17_">
							<use xlink:href="#SVGID_16_"  style="overflow:visible;"/>
						</clipPath>
						<line class="st20" x1="159.1" y1="169.8" x2="240.3" y2="169.8"/>
					</g>
				</g>
			</g>
			<g>
				<g>
					<g>
						<defs>
							<rect id="SVGID_18_" x="159.7" y="165.5" width="79.3" height="10.7"/>
						</defs>
						<clipPath id="SVGID_19_">
							<use xlink:href="#SVGID_18_"  style="overflow:visible;"/>
						</clipPath>
						<line class="st21" x1="159.1" y1="170.8" x2="240.3" y2="170.8"/>
					</g>
				</g>
			</g>
			<g>
				<g>
					<g>
						<defs>
							<rect id="SVGID_20_" x="159.7" y="165.5" width="79.3" height="10.7"/>
						</defs>
						<clipPath id="SVGID_21_">
							<use xlink:href="#SVGID_20_"  style="overflow:visible;"/>
						</clipPath>
						<line class="st22" x1="159.1" y1="171.8" x2="240.3" y2="171.8"/>
					</g>
				</g>
			</g>
			<g>
				<g>
					<g>
						<defs>
							<rect id="SVGID_22_" x="159.7" y="165.5" width="79.3" height="10.7"/>
						</defs>
						<clipPath id="SVGID_23_">
							<use xlink:href="#SVGID_22_"  style="overflow:visible;"/>
						</clipPath>
						<line class="st23" x1="159.1" y1="172.9" x2="240.3" y2="172.9"/>
					</g>
				</g>
			</g>
		</g>
		<g>
			<g>
				<rect id="SVGID_5_" x="159.7" y="208.2" class="st16" width="79.3" height="10.7"/>
			</g>
			<g>
				<g>
					<g>
						<defs>
							<rect id="SVGID_24_" x="159.7" y="208.2" width="79.3" height="10.7"/>
						</defs>
						<clipPath id="SVGID_25_">
							<use xlink:href="#SVGID_24_"  style="overflow:visible;"/>
						</clipPath>
						<line class="st24" x1="159.1" y1="209.4" x2="240.3" y2="209.4"/>
					</g>
				</g>
			</g>
			<g>
				<g>
					<g>
						<defs>
							<rect id="SVGID_26_" x="159.7" y="208.2" width="79.3" height="10.7"/>
						</defs>
						<clipPath id="SVGID_27_">
							<use xlink:href="#SVGID_26_"  style="overflow:visible;"/>
						</clipPath>
						<line class="st25" x1="159.1" y1="210.4" x2="240.3" y2="210.4"/>
					</g>
				</g>
			</g>
			<g>
				<g>
					<g>
						<defs>
							<rect id="SVGID_28_" x="159.7" y="208.2" width="79.3" height="10.7"/>
						</defs>
						<clipPath id="SVGID_29_">
							<use xlink:href="#SVGID_28_"  style="overflow:visible;"/>
						</clipPath>
						<line class="st26" x1="159.1" y1="211.5" x2="240.3" y2="211.5"/>
					</g>
				</g>
			</g>
			<g>
				<g>
					<g>
						<defs>
							<rect id="SVGID_30_" x="159.7" y="208.2" width="79.3" height="10.7"/>
						</defs>
						<clipPath id="SVGID_31_">
							<use xlink:href="#SVGID_30_"  style="overflow:visible;"/>
						</clipPath>
						<line class="st27" x1="159.1" y1="212.5" x2="240.3" y2="212.5"/>
					</g>
				</g>
			</g>
			<g>
				<g>
					<g>
						<defs>
							<rect id="SVGID_32_" x="159.7" y="208.2" width="79.3" height="10.7"/>
						</defs>
						<clipPath id="SVGID_33_">
							<use xlink:href="#SVGID_32_"  style="overflow:visible;"/>
						</clipPath>
						<line class="st28" x1="159.1" y1="213.5" x2="240.3" y2="213.5"/>
					</g>
				</g>
			</g>
			<g>
				<g>
					<g>
						<defs>
							<rect id="SVGID_34_" x="159.7" y="208.2" width="79.3" height="10.7"/>
						</defs>
						<clipPath id="SVGID_35_">
							<use xlink:href="#SVGID_34_"  style="overflow:visible;"/>
						</clipPath>
						<line class="st29" x1="159.1" y1="214.6" x2="240.3" y2="214.6"/>
					</g>
				</g>
			</g>
			<g>
				<g>
					<g>
						<defs>
							<rect id="SVGID_36_" x="159.7" y="208.2" width="79.3" height="10.7"/>
						</defs>
						<clipPath id="SVGID_37_">
							<use xlink:href="#SVGID_36_"  style="overflow:visible;"/>
						</clipPath>
						<line class="st30" x1="159.1" y1="215.6" x2="240.3" y2="215.6"/>
					</g>
				</g>
			</g>
		</g>
		<path class="st9" d="M206.2,168.9c-1.5,2.1-4,3.4-6.8,3.4s-5.3-1.4-6.8-3.4h-35.5v21.6h84.5v-21.6H206.2z"/>
		<path class="st9" d="M206.2,211.6c-1.5,2.1-4,3.4-6.8,3.4s-5.3-1.4-6.8-3.4h-35.5v21.6h84.5v-21.6H206.2z"/>
	</g>
	<g>
		<g>
			<g>
				<polygon id="SVGID_7_" class="st3" points="141.8,244.5 113.2,244.5 103.9,207.7 151.1,207.7 				"/>
			</g>
			<g>
				<g>
					<g>
						<defs>
							<polygon id="SVGID_38_" points="141.8,244.5 113.2,244.5 103.9,207.7 151.1,207.7 							"/>
						</defs>
						<clipPath id="SVGID_39_">
							<use xlink:href="#SVGID_38_"  style="overflow:visible;"/>
						</clipPath>
						<line class="st31" x1="104.6" y1="217.5" x2="150.2" y2="217.5"/>
					</g>
				</g>
			</g>
		</g>
		<g>
			<path class="st32" d="M122.4,207.7c-2.5-21.6,0.6-37.6,0.6-37.6s5.8,17.9,4.1,37.6L122.4,207.7L122.4,207.7z"/>
			<path class="st32" d="M134.2,173.4c0,0-5,14.4-4.8,34.3h3.5C133,207.7,137,185.6,134.2,173.4z"/>
			<path class="st10" d="M130.7,207.7c1.9-15.4,8.5-31.6,8.5-31.6s1.3,19-3.8,31.6H130.7z"/>
			<path class="st2" d="M126.8,207.7c0,0-1.5-23.8,2.6-35.9c0,0,4.2,15.9,1.7,35.9L126.8,207.7L126.8,207.7z"/>
			<path class="st10" d="M123,207.7c0,0-1.4-21.4-7.5-31.6c0,0-0.8,19,3.1,31.6H123z"/>
			<path class="st2" d="M135.5,207.7c1.6-11.9,8.9-27.1,8.9-27.1s0.3,14.4-3.6,27.1H135.5z"/>
			<path class="st2" d="M119.3,207.7c0,0-4.1-16-8.7-25.4c0,0,0.5,13.6,3.6,25.4H119.3z"/>
		</g>
	</g>
	<g>
		<path class="st33" d="M474.6,240.6L474.6,240.6c-0.8,0.2-1.6-0.3-1.8-1.1l-10.9-35.6l10.6-2.1l3.3,37.1
			C475.9,239.8,475.4,240.5,474.6,240.6z"/>
		<g>
			<path class="st2" d="M462.9,179.1c-0.4-2.2,1-4.3,3.2-4.7l2.5-0.5c0.4-0.1,0.8-0.1,1.1-0.1c2.8,0,5.2,2,5.7,4.7l2.3,11.9
				c1.2,6-2.8,11.9-8.8,13.1l-1.2,0.2L462.9,179.1z M469.7,176.4c-0.2,0-0.4,0-0.6,0.1l-1.8,0.4c-1.2,0.2-2,1.4-1.7,2.6l3.5,17.7
				c0.2,1.2,1.3,2,2.5,2c0.7,0,1.4-0.3,1.9-0.9c1.7-2,2.4-4.7,1.9-7.3l-2.3-11.9C472.6,177.5,471.3,176.4,469.7,176.4z"/>
			<g>
				<path class="st2" d="M464.3,204.3c-5.3,0-9.9-3.8-11-9l-2.3-11.9c-0.3-1.5,0-3.1,0.9-4.4c0.9-1.3,2.2-2.2,3.7-2.5l2.5-0.5
					c0.3-0.1,0.5-0.1,0.8-0.1c1.9,0,3.6,1.4,3.9,3.2l4.8,24.7l-1.2,0.2C465.7,204.2,465,204.3,464.3,204.3z M458.4,178.5
					c-0.1,0-0.3,0-0.4,0l-1.8,0.4c-1.8,0.3-3,2.1-2.6,3.9l2.3,11.9c0.5,2.6,2.2,4.8,4.5,6c0.4,0.2,0.8,0.3,1.2,0.3
					c0.7,0,1.5-0.3,2-0.9c0.5-0.6,0.7-1.3,0.5-2.1l-3.5-17.7C460.3,179.3,459.4,178.5,458.4,178.5z"/>
			</g>
		</g>
		<path class="st34" d="M474.6,240.6l-5.6-28.7c-0.3-1.3-1.5-2.2-2.9-1.9l0,0c-1.2,0.2-2.4-0.5-2.8-1.7l-1-3.2"/>
		<circle class="st34" cx="468" cy="207" r="1"/>
		<line class="st35" x1="462.9" y1="179.2" x2="467.8" y2="204.5"/>
	</g>
	<g>
		<path class="st36" d="M79.3,239.5H65.2c-11.4,0-20.8-9.3-20.8-20.8l0,0c0-11.4,9.3-20.8,20.8-20.8h14.1c11.4,0,20.8,9.3,20.8,20.8
			l0,0C100,230.1,90.7,239.5,79.3,239.5z"/>
		<polygon class="st36" points="48.1,212.2 40.4,212.8 40.4,220.8 46.7,223.8 		"/>
		<line class="st37" x1="68.8" y1="199.9" x2="76.6" y2="199.9"/>
		<polygon class="st36" points="56,236.6 57.8,244.5 66.8,244.5 68.2,238.2 		"/>
		<polygon class="st36" points="93.7,232.9 91,244.5 82,244.5 80.7,238.2 		"/>
		<circle class="st9" cx="50" cy="211.7" r="1.2"/>
		<path class="st7" d="M53.3,203.7v-4.9c0-2,2.1-3.3,3.9-2.4l4,2.1c1.1,0.6,1.2,2.2,0.2,2.9L56,205
			C54.8,205.9,53.3,205.1,53.3,203.7z"/>
		<circle class="st36" cx="98.4" cy="206.7" r="2.6"/>
	</g>
	<g>
		
			<rect x="457.5" y="182.4" transform="matrix(0.9842 -0.1769 0.1769 0.9842 -25.2438 84.1466)" class="st9" width="3.6" height="2.5"/>
		<path class="st3" d="M460.9,182.1l-0.3-1.8c-0.1-0.7-0.8-1.2-1.5-1.1l-1,0.2c-0.7,0.1-1.2,0.8-1.1,1.5l0.3,1.8L460.9,182.1z"/>
		<path class="st1" d="M470.4,235l-9.2-51.2l0.1,0.8l-3.6,0.6l9.1,50.5c0.2,1,1.1,1.6,2.1,1.5C469.9,237,470.5,236,470.4,235z"/>
	</g>
	
		<rect x="445.1" y="200.2" transform="matrix(0.1736 -0.9848 0.9848 0.1736 197.6108 645.3376)" class="st2" width="76.4" height="9.4"/>
	<g>
		<path class="st9" d="M474.5,239.4L474.5,239.4c-1-0.1-1.7-1-1.6-2l6.4-54.7c0.1-1,1-1.7,2-1.6l0,0c1,0.1,1.7,1,1.6,2l-6.4,54.7
			C476.4,238.8,475.5,239.5,474.5,239.4z"/>
		<line class="st38" x1="479.1" y1="184" x2="482.8" y2="184.4"/>
		<path class="st39" d="M477.1,203.7h0.2c0.5,0.1,1-0.3,1.1-0.8l2-17l-2-0.2l-2,17C476.2,203.2,476.6,203.6,477.1,203.7z"/>
	</g>
	<g>
		<g>
			<polygon id="SVGID_9_" class="st7" points="484.7,244.5 464.1,244.5 457.5,202.8 491.3,202.8 			"/>
		</g>
		<g>
			<g>
				<g>
					<defs>
						<polygon id="SVGID_40_" points="484.7,244.5 464.1,244.5 457.5,202.8 491.3,202.8 						"/>
					</defs>
					<clipPath id="SVGID_41_">
						<use xlink:href="#SVGID_40_"  style="overflow:visible;"/>
					</clipPath>
					<line class="st40" x1="455.9" y1="209.1" x2="492" y2="209.1"/>
				</g>
			</g>
		</g>
		<g>
			<g>
				<g>
					<defs>
						<polygon id="SVGID_42_" points="484.7,244.5 464.1,244.5 457.5,202.8 491.3,202.8 						"/>
					</defs>
					<clipPath id="SVGID_43_">
						<use xlink:href="#SVGID_42_"  style="overflow:visible;"/>
					</clipPath>
					<line class="st41" x1="455.9" y1="215" x2="492" y2="215"/>
				</g>
			</g>
		</g>
		<g>
			<g>
				<g>
					<defs>
						<polygon id="SVGID_44_" points="484.7,244.5 464.1,244.5 457.5,202.8 491.3,202.8 						"/>
					</defs>
					<clipPath id="SVGID_45_">
						<use xlink:href="#SVGID_44_"  style="overflow:visible;"/>
					</clipPath>
					<line class="st42" x1="455.9" y1="220.8" x2="492" y2="220.8"/>
				</g>
			</g>
		</g>
		<g>
			<g>
				<g>
					<defs>
						<polygon id="SVGID_46_" points="484.7,244.5 464.1,244.5 457.5,202.8 491.3,202.8 						"/>
					</defs>
					<clipPath id="SVGID_47_">
						<use xlink:href="#SVGID_46_"  style="overflow:visible;"/>
					</clipPath>
					<line class="st43" x1="455.9" y1="226.6" x2="492" y2="226.6"/>
				</g>
			</g>
		</g>
		<g>
			<g>
				<g>
					<defs>
						<polygon id="SVGID_48_" points="484.7,244.5 464.1,244.5 457.5,202.8 491.3,202.8 						"/>
					</defs>
					<clipPath id="SVGID_49_">
						<use xlink:href="#SVGID_48_"  style="overflow:visible;"/>
					</clipPath>
					<line class="st44" x1="455.9" y1="232.5" x2="492" y2="232.5"/>
				</g>
			</g>
		</g>
		<g>
			<g>
				<g>
					<defs>
						<polygon id="SVGID_50_" points="484.7,244.5 464.1,244.5 457.5,202.8 491.3,202.8 						"/>
					</defs>
					<clipPath id="SVGID_51_">
						<use xlink:href="#SVGID_50_"  style="overflow:visible;"/>
					</clipPath>
					<line class="st45" x1="455.9" y1="238.3" x2="492" y2="238.3"/>
				</g>
			</g>
		</g>
	</g>
	<g>
		<path class="st1" d="M514.6,214.6h-14.7c-2.9,0-5.3-2.4-5.3-5.3v-0.2c0-7,5.7-12.7,12.7-12.7l0,0c7,0,12.7,5.7,12.7,12.7v0.2
			C519.9,212.2,517.5,214.6,514.6,214.6z"/>
		<path class="st46" d="M494.6,209.1v0.2c0,0.1,0,0.1,0,0.2h25.3c0-0.1,0-0.1,0-0.2v-0.2c0-1.9-0.4-3.7-1.2-5.3h-23
			C495,205.4,494.6,207.2,494.6,209.1z"/>
		<path class="st1" d="M523.1,214.6h-31.5c-2.3,0-4.1-1.9-4.1-4.1l0,0c0-2.3,1.9-4.1,4.1-4.1h31.5c2.3,0,4.1,1.9,4.1,4.1l0,0
			C527.3,212.7,525.4,214.6,523.1,214.6z"/>
		<path class="st36" d="M514.6,225.3h-14.3c-2.9,0-5.3-2.4-5.3-5.3v-8.1c0-2,1.6-3.5,3.5-3.5h17.9c2,0,3.5,1.6,3.5,3.5v8.1
			C519.9,222.9,517.5,225.3,514.6,225.3z"/>
		<path class="st36" d="M511.7,234.5h-8.5v-7.3c0-1,0.9-1.9,1.9-1.9h4.7c1,0,1.9,0.9,1.9,1.9V234.5z"/>
		<path class="st2" d="M509.8,234.5h-1.9h-1.1H505h-1.9v4.7h3.7v-3c0-0.3,0.2-0.5,0.5-0.5l0,0c0.3,0,0.5,0.2,0.5,0.5v3h3.7v-4.7
			H509.8z"/>
		<rect x="503.1" y="238" class="st39" width="3.7" height="1.2"/>
		<rect x="507.9" y="238" class="st39" width="3.7" height="1.2"/>
		<path class="st36" d="M504.2,239.1v2.1h-1.8c-1.2,0-2.1,0.9-2.1,2.1h3.9h2v-2.1v-2.1H504.2z"/>
		<path class="st8" d="M506.2,244.5h-6c-0.3,0-0.6-0.3-0.6-0.6l0,0c0-0.3,0.3-0.6,0.6-0.6h6c0.3,0,0.6,0.3,0.6,0.6l0,0
			C506.7,244.3,506.5,244.5,506.2,244.5z"/>
		<path class="st47" d="M502.1,241.3c1,0.2,1.8,1,1.8,2.1l0,0"/>
		<path class="st46" d="M505,225.3L505,225.3L505,225.3c-3.2,0-5.8,2.6-5.8,5.7v0.9h2.7V231c0-1,0.5-1.9,1.3-2.5v5.9h3.1v-9.2H505
			V225.3z"/>
		<path class="st36" d="M501.9,234v-2.1h-2.7v2.1c-0.2,0.3-0.4,0.7-0.4,1.1c0,0.9,0.8,1.7,1.7,1.7c0.9,0,1.7-0.8,1.7-1.7
			C502.3,234.7,502.1,234.3,501.9,234z"/>
		<path class="st36" d="M510.6,239.1v2.1h1.8c1.2,0,2.1,0.9,2.1,2.1h-3.9h-2v-2.1v-2.1H510.6z"/>
		<path class="st8" d="M508.6,244.5h6c0.3,0,0.6-0.3,0.6-0.6l0,0c0-0.3-0.3-0.6-0.6-0.6h-6c-0.3,0-0.6,0.3-0.6,0.6l0,0
			C508.1,244.3,508.3,244.5,508.6,244.5z"/>
		<path class="st47" d="M512.7,241.3c-1,0.2-1.8,1-1.8,2.1l0,0"/>
		<path class="st46" d="M509.8,225.3L509.8,225.3L509.8,225.3c3.2,0,5.8,2.6,5.8,5.7v0.9h-2.7V231c0-1-0.5-1.9-1.3-2.5v5.9h-3.1
			v-9.2h1.3L509.8,225.3L509.8,225.3z"/>
		<path class="st36" d="M512.9,234v-2.1h2.7v2.1c0.2,0.3,0.4,0.7,0.4,1.1c0,0.9-0.8,1.7-1.7,1.7s-1.7-0.8-1.7-1.7
			C512.5,234.7,512.7,234.3,512.9,234z"/>
		<circle class="st9" cx="500.8" cy="217.3" r="2.5"/>
		<circle class="st9" cx="514" cy="217.3" r="2.5"/>
		<path class="st9" d="M516.3,208.3h-17.9c-2,0-3.5,1.6-3.5,3.5v4.1l3.9-5.4v3l3.1-3.1v3.1l4.2-3.7l4,5v-5l3.7,4.1v-4.1l5.9,6.1
			v-4.1C519.9,209.9,518.3,208.3,516.3,208.3z"/>
	</g>
	<path class="st32" d="M465.5,326.5h-43.3c-2.9,0-5.3-2.4-5.3-5.3v-51.3c0-2.9,2.4-5.3,5.3-5.3h43.3c2.9,0,5.3,2.4,5.3,5.3v51.3
		C470.9,324.1,468.5,326.5,465.5,326.5z"/>
	<polygon class="st48" points="103.1,272 88.5,312.5 126.3,312.5 	"/>
	<path class="st32" d="M256.8,312.5H120.4c-3.6,0-7.2-2.9-8.2-6.5L91,226.8c-1-3.6,1.2-6.5,4.7-6.5h136.4c3.6,0,7.2,2.9,8.2,6.5
		l21.2,79.2C262.5,309.6,260.4,312.5,256.8,312.5z"/>
	<polygon class="st39" points="255.6,308.6 136.8,308.6 114.2,224.3 233,224.3 	"/>
	<polygon class="st3" points="186.2,257.5 191.6,242.2 181.6,242.2 176.3,257.5 	"/>
	<path class="st7" d="M134,297.9c34.7-21.4-1.9-25.6,23.2-42.1s-8.4-14.6,19.1-31.6h24.9l-0.5,52.1l-20.4,32.3h-43.4L134,297.9z"/>
	<path class="st9" d="M204.2,308.6c0,0-12.6-1.8-8.9-20.1c3.6-18.3-1.5-31.4-11.4-34.1c-12.3-3.3-18.6,4.5-24.8,20.2
		s-17.5,34.1-17.5,34.1L204.2,308.6L204.2,308.6z"/>
	<circle class="st39" cx="191.3" cy="238.2" r="12.9"/>
	
		<ellipse transform="matrix(0.6585 -0.7526 0.7526 0.6585 -161.382 177.1662)" class="st2" cx="114.5" cy="266.4" rx="6.4" ry="8.3"/>
	
		<ellipse transform="matrix(0.6585 -0.7526 0.7526 0.6585 -161.382 177.1662)" class="st32" cx="114.5" cy="266.4" rx="2.8" ry="3.6"/>
	<path class="st2" d="M112.9,251.9h-4.5c-1.3,0-2.6-1.1-3-2.3l0,0c-0.3-1.3,0.4-2.3,1.7-2.3h4.5c1.3,0,2.6,1.1,3,2.3l0,0
		C114.9,250.9,114.1,251.9,112.9,251.9z"/>
	<g>
		<g>
			<path class="st8" d="M443.5,237.9H256.3c-4.4,0-8-3.6-8-8V119.6c0-4.4,3.6-8,8-8h187.2c4.4,0,8,3.6,8,8v110.3
				C451.5,234.3,447.9,237.9,443.5,237.9z"/>
			<rect x="361.2" y="120.7" class="st9" width="90.3" height="103.6"/>
			<rect x="248.4" y="120.7" class="st2" width="112.9" height="103.6"/>
			<rect x="248.4" y="127.9" class="st39" width="112.9" height="96.4"/>
			<rect x="269.3" y="137.8" class="st49" width="70.9" height="23"/>
			<circle class="st9" cx="349.9" cy="116.6" r="1.2"/>
			<circle class="st39" cx="252.5" cy="124.6" r="1.5"/>
			<circle class="st39" cx="257.5" cy="124.6" r="1.5"/>
			<rect x="365.2" y="126" class="st7" width="3.2" height="3.2"/>
			<rect x="365.2" y="132.2" class="st7" width="3.2" height="3.2"/>
			<rect x="365.2" y="138.5" class="st7" width="3.2" height="3.2"/>
			<rect x="365.2" y="144.7" class="st7" width="3.2" height="3.2"/>
			<rect x="365.2" y="150.9" class="st7" width="3.2" height="3.2"/>
			<rect x="365.2" y="157.1" class="st7" width="3.2" height="3.2"/>
			<rect x="365.2" y="163.3" class="st7" width="3.2" height="3.2"/>
			<rect x="365.2" y="169.6" class="st7" width="3.2" height="3.2"/>
			<rect x="365.2" y="175.8" class="st7" width="3.2" height="3.2"/>
			<rect x="365.2" y="182" class="st7" width="3.2" height="3.2"/>
			<rect x="365.2" y="188.2" class="st7" width="3.2" height="3.2"/>
			<rect x="365.2" y="194.4" class="st7" width="3.2" height="3.2"/>
			<rect x="365.2" y="200.7" class="st7" width="3.2" height="3.2"/>
			<rect x="370.7" y="126" class="st2" width="12" height="3.2"/>
			<rect x="384.9" y="126" class="st39" width="18" height="3.2"/>
			<rect x="370.7" y="132.2" class="st2" width="10.8" height="3.2"/>
			<rect x="383.7" y="132.2" class="st39" width="13.9" height="3.2"/>
			<rect x="370.7" y="144.7" class="st2" width="13.1" height="3.2"/>
			<rect x="386" y="144.7" class="st39" width="13.1" height="3.2"/>
			<rect x="401.4" y="144.7" class="st3" width="18.1" height="3.2"/>
			<rect x="370.7" y="150.9" class="st3" width="21.4" height="3.2"/>
			<rect x="370.7" y="157.1" class="st39" width="25.6" height="3.2"/>
			<rect x="370.7" y="163.3" class="st2" width="5.4" height="3.2"/>
			<rect x="370.7" y="175.8" class="st2" width="16.5" height="3.2"/>
			<rect x="389.5" y="175.8" class="st39" width="10.3" height="3.2"/>
			<rect x="402" y="175.8" class="st3" width="18.1" height="3.2"/>
			<rect x="370.7" y="182" class="st3" width="21.9" height="3.2"/>
			<rect x="394.8" y="182" class="st2" width="7.7" height="3.2"/>
			<rect x="370.7" y="188.2" class="st2" width="17.7" height="3.2"/>
			<rect x="390.7" y="188.2" class="st39" width="17.7" height="3.2"/>
			<rect x="370.7" y="200.7" class="st2" width="20" height="3.2"/>
			<rect x="393.4" y="200.7" class="st3" width="20" height="3.2"/>
			<path class="st0" d="M343.1,176.4h-76.6c-2.1,0-3.8-1.7-3.8-3.8l0,0c0-2.1,1.7-3.8,3.8-3.8h76.6c2.1,0,3.8,1.7,3.8,3.8l0,0
				C346.9,174.8,345.2,176.4,343.1,176.4z"/>
		</g>
		
			<linearGradient id="SVGID_52_" gradientUnits="userSpaceOnUse" x1="346.15" y1="-560.3" x2="346.15" y2="-456.7" gradientTransform="matrix(1 0 0 -1 0 -336)">
			<stop  offset="0" style="stop-color:#FFFFFF;stop-opacity:0"/>
			<stop  offset="1" style="stop-color:#FFFFFF"/>
		</linearGradient>
		<polygon class="st50" points="248.4,120.7 443.9,120.7 340.3,224.3 248.4,224.3 		"/>
	</g>
	<g>
		<polygon class="st51" points="197.1,287.8 192.1,284.7 219.3,244.8 224.3,248 		"/>
	</g>
	<path class="st2" d="M190.2,272c-9.5,0-17.3,7.2-17.3,16.2c0,1.5,0.2,3,0.6,4.4c-8.6,1-15.2,7.8-15.2,16.1l0,0h34.6l0,0
		c0-1.5-0.2-3-0.6-4.4c8.6-1,15.2-7.8,15.2-16.1C207.5,279.2,199.7,272,190.2,272z"/>
	<path class="st2" d="M110.3,242.2h-4.5c-1.3,0-2.6-1.1-3-2.3l0,0c-0.3-1.3,0.4-2.3,1.7-2.3h4.5c1.3,0,2.6,1.1,3,2.3l0,0
		C112.3,241.2,111.5,242.2,110.3,242.2z"/>
	<path class="st52" d="M413.4,254.6h20.4c7.4,0,13.3,6,13.3,13.3v9"/>
	
		<linearGradient id="SVGID_53_" gradientUnits="userSpaceOnUse" x1="173.6" y1="-644.6" x2="173.6" y2="-560.3" gradientTransform="matrix(1 0 0 -1 0 -336)">
		<stop  offset="0" style="stop-color:#FFFFFF;stop-opacity:0"/>
		<stop  offset="1" style="stop-color:#FFFFFF"/>
	</linearGradient>
	<polygon class="st53" points="136.8,308.6 114.2,224.3 233,224.3 167.6,308.6 	"/>
	<path class="st2" d="M120.6,280.9h-4.5c-1.3,0-2.1,1.1-1.7,2.3l0,0c0.3,1.3,1.7,2.3,3,2.3h4.5c1.3,0,2.1-1.1,1.7-2.3l0,0
		C123.2,282,121.9,280.9,120.6,280.9z"/>
	<path class="st2" d="M123.2,290.6h-4.5c-1.3,0-2.1,1.1-1.7,2.3l0,0c0.3,1.3,1.7,2.3,3,2.3h4.5c1.3,0,2.1-1.1,1.7-2.3l0,0
		C125.8,291.6,124.5,290.6,123.2,290.6z"/>
	<path class="st36" d="M344.2,184.3c-7.8-11.6-8.9-16.7-15.9-45.8l-38.3,9.2l11.8,43.7L344.2,184.3z"/>
	<path class="st36" d="M336.4,172l-46.8,11.2c-3.4,0.8-6.8-1.3-7.7-4.7l-7.1-29.7l-1.3-0.8c-0.7-0.4-1.2-1.2-1.2-2l-1.1-12.4
		l-3.6-14.9l41.2-9.9c6.5-1.6,13,2.4,14.6,8.9L336.4,172z"/>
	<path class="st36" d="M274.8,148.9l-1.1,16.6c-0.1,1.3,1.2,2.4,2.5,2.1l2.9-0.7L274.8,148.9z"/>
	<path class="st2" d="M220.3,250.3l-1.3-0.9c-1.9-1.3-2.4-3.8-1.1-5.7l3-4.5c1.3-1.9,3.8-2.4,5.7-1.1l1.3,0.9
		c1.9,1.3,2.4,3.8,1.1,5.7l-3,4.5C224.7,251,222.2,251.5,220.3,250.3z"/>
	<path class="st54" d="M294.3,156.6c-1.2,2.2-4.5,2.8-5.1,0.3"/>
	<path class="st10" d="M273,133.2c1.1,5.5,2.2,7.5,5.2,8.7s4.3,2.1,5.7,6.2c1.4,4.1,3.6,3.2,5.4,3.5c14.8,17.3,24.6,9.1,32.1,12.3
		c1.8-4.8,11.2-7.1,10.2-11.4s-7.6-31.8-7.6-31.8L273,133.2z"/>
	<path class="st36" d="M289.7,157.1l-2.2-5.6l-1.4-6.2c0,0,0.2-3.8,3.9-4.2s5.1,3.5,4.5,7c-0.4,2.4,0.8,6-0.5,8.3"/>
	<path class="st32" d="M324,120.7c0.4-9.2-4-18.6-16.9-17.2c-9.1-2.6-16.4-1.3-19.8,0.7c-4.3-1.1-8.9,0.2-12,2.7
		c-7.9-0.5-11.3,4.6-13.4,8.2c-2,3.6-8.4,1.7-8.4,1.7s1.6,2.3,5.5,2.2c-3.9,3.9-0.8,10,3.3,9.5c0,0-2.2,3.8,1.6,5.2
		c0,0-1.5-1.7-0.5-3.6c0.8,5.1,7.8,3.6,7.8,3.6L324,120.7"/>
	<path class="st9" d="M296.6,196.1c5.6-8.1,13.2-14.4,29.3-17.4c16.1-3,18.8,1.7,24.3,8.6L296.6,196.1z"/>
	<g>
		<g>
			<path id="SVGID_13_" class="st3" d="M273.2,274.5l-32.6-12.2c9.3-37.2,15.3-45.2,32.6-54.5c9.7-5.2,14.6-7.3,26.6-13.3
				s32.6-13.4,60.5-4.7c42.5,13.3,48.5,16.6,60.5,67.1l-34.9,14V340H273.2V274.5z"/>
		</g>
		<g>
			<g>
				<g>
					<defs>
						<path id="SVGID_54_" d="M273.2,274.5l-32.6-12.2c9.3-37.2,15.3-45.2,32.6-54.5c9.7-5.2,14.6-7.3,26.6-13.3s32.6-13.4,60.5-4.7
							c42.5,13.3,48.5,16.6,60.5,67.1l-34.9,14V340H273.2V274.5z"/>
					</defs>
					<clipPath id="SVGID_55_">
						<use xlink:href="#SVGID_54_"  style="overflow:visible;"/>
					</clipPath>
					<line class="st55" x1="248.9" y1="174.6" x2="248.9" y2="348.9"/>
				</g>
			</g>
		</g>
		<g>
			<g>
				<g>
					<defs>
						<path id="SVGID_56_" d="M273.2,274.5l-32.6-12.2c9.3-37.2,15.3-45.2,32.6-54.5c9.7-5.2,14.6-7.3,26.6-13.3s32.6-13.4,60.5-4.7
							c42.5,13.3,48.5,16.6,60.5,67.1l-34.9,14V340H273.2V274.5z"/>
					</defs>
					<clipPath id="SVGID_57_">
						<use xlink:href="#SVGID_56_"  style="overflow:visible;"/>
					</clipPath>
					<line class="st56" x1="256.5" y1="174.6" x2="256.5" y2="348.9"/>
				</g>
			</g>
		</g>
		<g>
			<g>
				<g>
					<defs>
						<path id="SVGID_58_" d="M273.2,274.5l-32.6-12.2c9.3-37.2,15.3-45.2,32.6-54.5c9.7-5.2,14.6-7.3,26.6-13.3s32.6-13.4,60.5-4.7
							c42.5,13.3,48.5,16.6,60.5,67.1l-34.9,14V340H273.2V274.5z"/>
					</defs>
					<clipPath id="SVGID_59_">
						<use xlink:href="#SVGID_58_"  style="overflow:visible;"/>
					</clipPath>
					<line class="st57" x1="264" y1="174.6" x2="264" y2="348.9"/>
				</g>
			</g>
		</g>
		<g>
			<g>
				<g>
					<defs>
						<path id="SVGID_60_" d="M273.2,274.5l-32.6-12.2c9.3-37.2,15.3-45.2,32.6-54.5c9.7-5.2,14.6-7.3,26.6-13.3s32.6-13.4,60.5-4.7
							c42.5,13.3,48.5,16.6,60.5,67.1l-34.9,14V340H273.2V274.5z"/>
					</defs>
					<clipPath id="SVGID_61_">
						<use xlink:href="#SVGID_60_"  style="overflow:visible;"/>
					</clipPath>
					<line class="st58" x1="271.5" y1="174.6" x2="271.5" y2="348.9"/>
				</g>
			</g>
		</g>
		<g>
			<g>
				<g>
					<defs>
						<path id="SVGID_62_" d="M273.2,274.5l-32.6-12.2c9.3-37.2,15.3-45.2,32.6-54.5c9.7-5.2,14.6-7.3,26.6-13.3s32.6-13.4,60.5-4.7
							c42.5,13.3,48.5,16.6,60.5,67.1l-34.9,14V340H273.2V274.5z"/>
					</defs>
					<clipPath id="SVGID_63_">
						<use xlink:href="#SVGID_62_"  style="overflow:visible;"/>
					</clipPath>
					<line class="st59" x1="279" y1="174.6" x2="279" y2="348.9"/>
				</g>
			</g>
		</g>
		<g>
			<g>
				<g>
					<defs>
						<path id="SVGID_64_" d="M273.2,274.5l-32.6-12.2c9.3-37.2,15.3-45.2,32.6-54.5c9.7-5.2,14.6-7.3,26.6-13.3s32.6-13.4,60.5-4.7
							c42.5,13.3,48.5,16.6,60.5,67.1l-34.9,14V340H273.2V274.5z"/>
					</defs>
					<clipPath id="SVGID_65_">
						<use xlink:href="#SVGID_64_"  style="overflow:visible;"/>
					</clipPath>
					<line class="st60" x1="286.5" y1="174.6" x2="286.5" y2="348.9"/>
				</g>
			</g>
		</g>
		<g>
			<g>
				<g>
					<defs>
						<path id="SVGID_66_" d="M273.2,274.5l-32.6-12.2c9.3-37.2,15.3-45.2,32.6-54.5c9.7-5.2,14.6-7.3,26.6-13.3s32.6-13.4,60.5-4.7
							c42.5,13.3,48.5,16.6,60.5,67.1l-34.9,14V340H273.2V274.5z"/>
					</defs>
					<clipPath id="SVGID_67_">
						<use xlink:href="#SVGID_66_"  style="overflow:visible;"/>
					</clipPath>
					<line class="st61" x1="294" y1="174.6" x2="294" y2="348.9"/>
				</g>
			</g>
		</g>
		<g>
			<g>
				<g>
					<defs>
						<path id="SVGID_68_" d="M273.2,274.5l-32.6-12.2c9.3-37.2,15.3-45.2,32.6-54.5c9.7-5.2,14.6-7.3,26.6-13.3s32.6-13.4,60.5-4.7
							c42.5,13.3,48.5,16.6,60.5,67.1l-34.9,14V340H273.2V274.5z"/>
					</defs>
					<clipPath id="SVGID_69_">
						<use xlink:href="#SVGID_68_"  style="overflow:visible;"/>
					</clipPath>
					<line class="st62" x1="301.5" y1="174.6" x2="301.5" y2="348.9"/>
				</g>
			</g>
		</g>
		<g>
			<g>
				<g>
					<defs>
						<path id="SVGID_70_" d="M273.2,274.5l-32.6-12.2c9.3-37.2,15.3-45.2,32.6-54.5c9.7-5.2,14.6-7.3,26.6-13.3s32.6-13.4,60.5-4.7
							c42.5,13.3,48.5,16.6,60.5,67.1l-34.9,14V340H273.2V274.5z"/>
					</defs>
					<clipPath id="SVGID_71_">
						<use xlink:href="#SVGID_70_"  style="overflow:visible;"/>
					</clipPath>
					<line class="st63" x1="309.1" y1="174.6" x2="309.1" y2="348.9"/>
				</g>
			</g>
		</g>
		<g>
			<g>
				<g>
					<defs>
						<path id="SVGID_72_" d="M273.2,274.5l-32.6-12.2c9.3-37.2,15.3-45.2,32.6-54.5c9.7-5.2,14.6-7.3,26.6-13.3s32.6-13.4,60.5-4.7
							c42.5,13.3,48.5,16.6,60.5,67.1l-34.9,14V340H273.2V274.5z"/>
					</defs>
					<clipPath id="SVGID_73_">
						<use xlink:href="#SVGID_72_"  style="overflow:visible;"/>
					</clipPath>
					<line class="st64" x1="316.6" y1="174.6" x2="316.6" y2="348.9"/>
				</g>
			</g>
		</g>
		<g>
			<g>
				<g>
					<defs>
						<path id="SVGID_74_" d="M273.2,274.5l-32.6-12.2c9.3-37.2,15.3-45.2,32.6-54.5c9.7-5.2,14.6-7.3,26.6-13.3s32.6-13.4,60.5-4.7
							c42.5,13.3,48.5,16.6,60.5,67.1l-34.9,14V340H273.2V274.5z"/>
					</defs>
					<clipPath id="SVGID_75_">
						<use xlink:href="#SVGID_74_"  style="overflow:visible;"/>
					</clipPath>
					<line class="st65" x1="324.1" y1="174.6" x2="324.1" y2="348.9"/>
				</g>
			</g>
		</g>
		<g>
			<g>
				<g>
					<defs>
						<path id="SVGID_76_" d="M273.2,274.5l-32.6-12.2c9.3-37.2,15.3-45.2,32.6-54.5c9.7-5.2,14.6-7.3,26.6-13.3s32.6-13.4,60.5-4.7
							c42.5,13.3,48.5,16.6,60.5,67.1l-34.9,14V340H273.2V274.5z"/>
					</defs>
					<clipPath id="SVGID_77_">
						<use xlink:href="#SVGID_76_"  style="overflow:visible;"/>
					</clipPath>
					<line class="st66" x1="331.6" y1="174.6" x2="331.6" y2="348.9"/>
				</g>
			</g>
		</g>
		<g>
			<g>
				<g>
					<defs>
						<path id="SVGID_78_" d="M273.2,274.5l-32.6-12.2c9.3-37.2,15.3-45.2,32.6-54.5c9.7-5.2,14.6-7.3,26.6-13.3s32.6-13.4,60.5-4.7
							c42.5,13.3,48.5,16.6,60.5,67.1l-34.9,14V340H273.2V274.5z"/>
					</defs>
					<clipPath id="SVGID_79_">
						<use xlink:href="#SVGID_78_"  style="overflow:visible;"/>
					</clipPath>
					<line class="st67" x1="339.1" y1="174.6" x2="339.1" y2="348.9"/>
				</g>
			</g>
		</g>
		<g>
			<g>
				<g>
					<defs>
						<path id="SVGID_80_" d="M273.2,274.5l-32.6-12.2c9.3-37.2,15.3-45.2,32.6-54.5c9.7-5.2,14.6-7.3,26.6-13.3s32.6-13.4,60.5-4.7
							c42.5,13.3,48.5,16.6,60.5,67.1l-34.9,14V340H273.2V274.5z"/>
					</defs>
					<clipPath id="SVGID_81_">
						<use xlink:href="#SVGID_80_"  style="overflow:visible;"/>
					</clipPath>
					<line class="st68" x1="346.6" y1="174.6" x2="346.6" y2="348.9"/>
				</g>
			</g>
		</g>
		<g>
			<g>
				<g>
					<defs>
						<path id="SVGID_82_" d="M273.2,274.5l-32.6-12.2c9.3-37.2,15.3-45.2,32.6-54.5c9.7-5.2,14.6-7.3,26.6-13.3s32.6-13.4,60.5-4.7
							c42.5,13.3,48.5,16.6,60.5,67.1l-34.9,14V340H273.2V274.5z"/>
					</defs>
					<clipPath id="SVGID_83_">
						<use xlink:href="#SVGID_82_"  style="overflow:visible;"/>
					</clipPath>
					<line class="st69" x1="354.2" y1="174.6" x2="354.2" y2="348.9"/>
				</g>
			</g>
		</g>
		<g>
			<g>
				<g>
					<defs>
						<path id="SVGID_84_" d="M273.2,274.5l-32.6-12.2c9.3-37.2,15.3-45.2,32.6-54.5c9.7-5.2,14.6-7.3,26.6-13.3s32.6-13.4,60.5-4.7
							c42.5,13.3,48.5,16.6,60.5,67.1l-34.9,14V340H273.2V274.5z"/>
					</defs>
					<clipPath id="SVGID_85_">
						<use xlink:href="#SVGID_84_"  style="overflow:visible;"/>
					</clipPath>
					<line class="st70" x1="361.7" y1="174.6" x2="361.7" y2="348.9"/>
				</g>
			</g>
		</g>
		<g>
			<g>
				<g>
					<defs>
						<path id="SVGID_86_" d="M273.2,274.5l-32.6-12.2c9.3-37.2,15.3-45.2,32.6-54.5c9.7-5.2,14.6-7.3,26.6-13.3s32.6-13.4,60.5-4.7
							c42.5,13.3,48.5,16.6,60.5,67.1l-34.9,14V340H273.2V274.5z"/>
					</defs>
					<clipPath id="SVGID_87_">
						<use xlink:href="#SVGID_86_"  style="overflow:visible;"/>
					</clipPath>
					<line class="st71" x1="368.6" y1="174.6" x2="368.6" y2="348.9"/>
				</g>
			</g>
		</g>
		<g>
			<g>
				<g>
					<defs>
						<path id="SVGID_88_" d="M273.2,274.5l-32.6-12.2c9.3-37.2,15.3-45.2,32.6-54.5c9.7-5.2,14.6-7.3,26.6-13.3s32.6-13.4,60.5-4.7
							c42.5,13.3,48.5,16.6,60.5,67.1l-34.9,14V340H273.2V274.5z"/>
					</defs>
					<clipPath id="SVGID_89_">
						<use xlink:href="#SVGID_88_"  style="overflow:visible;"/>
					</clipPath>
					<line class="st72" x1="376.7" y1="174.6" x2="376.7" y2="348.9"/>
				</g>
			</g>
		</g>
		<g>
			<g>
				<g>
					<defs>
						<path id="SVGID_90_" d="M273.2,274.5l-32.6-12.2c9.3-37.2,15.3-45.2,32.6-54.5c9.7-5.2,14.6-7.3,26.6-13.3s32.6-13.4,60.5-4.7
							c42.5,13.3,48.5,16.6,60.5,67.1l-34.9,14V340H273.2V274.5z"/>
					</defs>
					<clipPath id="SVGID_91_">
						<use xlink:href="#SVGID_90_"  style="overflow:visible;"/>
					</clipPath>
					<line class="st73" x1="384.2" y1="174.6" x2="384.2" y2="348.9"/>
				</g>
			</g>
		</g>
		<g>
			<g>
				<g>
					<defs>
						<path id="SVGID_92_" d="M273.2,274.5l-32.6-12.2c9.3-37.2,15.3-45.2,32.6-54.5c9.7-5.2,14.6-7.3,26.6-13.3s32.6-13.4,60.5-4.7
							c42.5,13.3,48.5,16.6,60.5,67.1l-34.9,14V340H273.2V274.5z"/>
					</defs>
					<clipPath id="SVGID_93_">
						<use xlink:href="#SVGID_92_"  style="overflow:visible;"/>
					</clipPath>
					<line class="st74" x1="391.7" y1="174.6" x2="391.7" y2="348.9"/>
				</g>
			</g>
		</g>
		<g>
			<g>
				<g>
					<defs>
						<path id="SVGID_94_" d="M273.2,274.5l-32.6-12.2c9.3-37.2,15.3-45.2,32.6-54.5c9.7-5.2,14.6-7.3,26.6-13.3s32.6-13.4,60.5-4.7
							c42.5,13.3,48.5,16.6,60.5,67.1l-34.9,14V340H273.2V274.5z"/>
					</defs>
					<clipPath id="SVGID_95_">
						<use xlink:href="#SVGID_94_"  style="overflow:visible;"/>
					</clipPath>
					<line class="st75" x1="399.2" y1="174.6" x2="399.2" y2="348.9"/>
				</g>
			</g>
		</g>
		<g>
			<g>
				<g>
					<defs>
						<path id="SVGID_96_" d="M273.2,274.5l-32.6-12.2c9.3-37.2,15.3-45.2,32.6-54.5c9.7-5.2,14.6-7.3,26.6-13.3s32.6-13.4,60.5-4.7
							c42.5,13.3,48.5,16.6,60.5,67.1l-34.9,14V340H273.2V274.5z"/>
					</defs>
					<clipPath id="SVGID_97_">
						<use xlink:href="#SVGID_96_"  style="overflow:visible;"/>
					</clipPath>
					<line class="st76" x1="406.8" y1="174.6" x2="406.8" y2="348.9"/>
				</g>
			</g>
		</g>
		<g>
			<g>
				<g>
					<defs>
						<path id="SVGID_98_" d="M273.2,274.5l-32.6-12.2c9.3-37.2,15.3-45.2,32.6-54.5c9.7-5.2,14.6-7.3,26.6-13.3s32.6-13.4,60.5-4.7
							c42.5,13.3,48.5,16.6,60.5,67.1l-34.9,14V340H273.2V274.5z"/>
					</defs>
					<clipPath id="SVGID_99_">
						<use xlink:href="#SVGID_98_"  style="overflow:visible;"/>
					</clipPath>
					<line class="st77" x1="414.3" y1="174.6" x2="414.3" y2="348.9"/>
				</g>
			</g>
		</g>
	</g>
	<path class="st36" d="M273.2,274.5l-12.3,47.6c-2.7,10.5-12.2,17.9-23.1,17.9l0,0c-10.5,0-19.7-6.8-22.8-16.8l-18.8-61.5l19.9-5.9
		l16.8,36.7l7.8-30.3L273.2,274.5z"/>
	<g>
		<path class="st7" d="M228.5,308.4C228.5,308.4,228.4,308.4,228.5,308.4c-0.3-0.1-0.4-0.2-0.3-0.4l4.2-16.4l0.4,1l-4,15.6
			C228.8,308.3,228.6,308.4,228.5,308.4z"/>
	</g>
	<polygon class="st9" points="243,253.2 273.2,264.6 273.2,274.5 240.7,262.3 	"/>
	<path class="st36" d="M385.7,271l13.4,54.8c2.6,10.6,13.6,16.7,23.9,13.3l0,0c9.3-3,14.6-12.7,12.3-22.1l-14.6-60L385.7,271z"/>
	<polygon class="st9" points="418.6,248.3 385.4,261 385.4,270.9 420.7,257 	"/>
	<g>
		<g>
			<path id="SVGID_15_" class="st36" d="M216,255.8c-4.3,1.3-14.8,4.4-19.9,5.9c-3-5.9-12-22-7.1-30.5s18.5-9.7,27-4.7
				C224.6,231.4,220.9,247.3,216,255.8z"/>
		</g>
		<g>
			<g>
				<g>
					<defs>
						<path id="SVGID_100_" d="M216,255.8c-4.3,1.3-14.8,4.4-19.9,5.9c-3-5.9-12-22-7.1-30.5s18.5-9.7,27-4.7
							C224.6,231.4,220.9,247.3,216,255.8z"/>
					</defs>
					<clipPath id="SVGID_101_">
						<use xlink:href="#SVGID_100_"  style="overflow:visible;"/>
					</clipPath>
					<path class="st78" d="M218.6,228.2L218.6,228.2c-1.7-0.9-3.7-0.3-4.6,1.3l-1.9,3.2"/>
				</g>
			</g>
		</g>
	</g>
	<path class="st32" d="M414.2,340H285.7V219.1c0-6.9,5.6-12.5,12.5-12.5h103.4c6.9,0,12.5,5.6,12.5,12.5V340H414.2z"/>
	<path class="st48" d="M414.2,340H294.8V223.9c0-6.5,5.3-11.8,11.8-11.8h95.7c6.5,0,11.8,5.3,11.8,11.8V340H414.2z"/>
	<path class="st8" d="M447.2,312.8L447.2,312.8c-6,0-10.9-4.9-10.9-10.9v-14c0-6,4.9-10.9,10.9-10.9l0,0c6,0,10.9,4.9,10.9,10.9v14
		C458.2,307.9,453.2,312.8,447.2,312.8z"/>
	<line class="st79" x1="436.3" y1="287.9" x2="458.2" y2="287.9"/>
	<path class="st39" d="M447.2,285.6L447.2,285.6c-0.6,0-1.1-0.5-1.1-1.1v-3c0-0.6,0.5-1.1,1.1-1.1l0,0c0.6,0,1.1,0.5,1.1,1.1v3
		C448.3,285.1,447.8,285.6,447.2,285.6z"/>
	<path class="st32" d="M527.9,269.4h-2.3V264h-30.7v26.8c0,5.4,4.4,9.8,9.8,9.8h11.1c5.4,0,9.8-4.4,9.8-9.8v-1.1h2.3
		c5.6,0,10.1-4.5,10.1-10.1C538,274,533.5,269.4,527.9,269.4z M528.3,285.8h-2.6v-12.5h2.6c3.5,0,6.3,2.8,6.3,6.3
		C534.6,283,531.7,285.8,528.3,285.8z"/>
	<g>
		<g>
			<path class="st2" d="M195.3,108c-24.1,0-43.6-19.6-43.6-43.6s19.5-43.7,43.6-43.7s43.6,19.6,43.6,43.6S219.3,108,195.3,108z"/>
		</g>
	</g>
	<circle class="st39" cx="195.3" cy="64.3" r="38.1"/>
	<g>
		<g>
			<path class="st32" d="M195.3,66c-0.3,0-0.6-0.1-0.8-0.2c-0.5-0.3-0.8-0.8-0.8-1.4V36c0-0.9,0.7-1.7,1.7-1.7
				c0.9,0,1.7,0.7,1.7,1.7v25.3l15.1-9.2c0.8-0.5,1.8-0.2,2.3,0.6s0.2,1.8-0.6,2.3l-17.6,10.7C195.9,65.9,195.6,66,195.3,66z"/>
		</g>
	</g>
	<g>
		<rect x="558.7" y="261.1" class="st32" width="60.8" height="35.6"/>
		<rect x="558.7" y="261.1" class="st48" width="16.9" height="35.6"/>
		<rect x="558.7" y="261.1" class="st32" width="16.9" height="2.9"/>
		<rect x="575.5" y="261.2" class="st48" width="43.9" height="3.9"/>
		<g>
			<circle class="st48" cx="598.9" cy="278.9" r="19.3"/>
			<circle class="st32" cx="598.9" cy="278.9" r="16.7"/>
			<circle class="st10" cx="598.9" cy="278.9" r="11.8"/>
			<path class="st80" d="M607.4,278.9c0,4.7-3.8,8.5-8.5,8.5s-8.5-3.8-8.5-8.5s3.8-8.5,8.5-8.5S607.4,274.2,607.4,278.9"/>
			<circle class="st2" cx="598.9" cy="278.9" r="3.7"/>
		</g>
		<rect x="566.5" y="260.1" class="st48" width="6.5" height="1.3"/>
		<rect x="565.4" y="261.5" class="st48" width="8.7" height="1.3"/>
		<rect x="559.6" y="261.8" class="st48" width="4.1" height="0.9"/>
	</g>
	<line class="st81" x1="91.9" y1="223.6" x2="114.9" y2="309.3"/>
	<path class="st2" d="M140.6,236.8c7,0,12.6-5.6,12.6-12.6H128C128,231.2,133.7,236.8,140.6,236.8z"/>
	<g>
		<path class="st7" d="M298.4,181.1l-0.7-2.5c-0.1-0.2,0-0.4,0.2-0.4s0.4,0.1,0.4,0.2l0.7,2.5C298.9,181,298.6,181.1,298.4,181.1z"
			/>
	</g>
	<path class="st54" d="M292.5,148c0.4-0.9,0.7-3.4-0.5-4.4c-1.2-0.9-3-0.1-3.7,1.7c0,0,0.6,2.8,0.7,3.6c0.2,0.8,2.2,1,1,3.1"/>
	
		<linearGradient id="SVGID_102_" gradientUnits="userSpaceOnUse" x1="507.8" y1="-600.017" x2="507.8" y2="-549.866" gradientTransform="matrix(1 0 0 -1 0 -336)">
		<stop  offset="0" style="stop-color:#FFFFFF"/>
		<stop  offset="1" style="stop-color:#FFFFFF;stop-opacity:0"/>
	</linearGradient>
	<path class="st82" d="M486.5,214l0.5,16.3c0,3.3,2.7,6,6,6h17.7c3.3,0,6,2.7,6,6v0.7c0,3.3-2.7,6-6,6l0,0c-3.3,0-6,2.7-6,6v9.2
		h10.7v-1.5c0-2.6,2.1-4.8,4.8-4.8l0,0c4.9,0,8.9-4,8.9-8.9v-11.6c0-8.3-6.8-15.1-15.1-15.1l0,0c-3.3,0-6-2.7-6-6v-2.4"/>
	<g>
		<path class="st7" d="M584.4,145.5H478c-2.6,0-4.7-2.1-4.7-4.7V69.6c0-2.6,2.1-4.7,4.7-4.7h106.4c2.6,0,4.7,2.1,4.7,4.7v71.3
			C589.1,143.4,587,145.5,584.4,145.5z"/>
		<path class="st9" d="M589.1,77.4H473.3v-7.8c0-2.6,2.1-4.7,4.7-4.7h106.4c2.6,0,4.7,2.1,4.7,4.7L589.1,77.4L589.1,77.4z"/>
		<path class="st83" d="M508.7,99.7h-8.6c-1.2,0-2.1-1-2.1-2.1V89c0-1.2,1-2.1,2.1-2.1h8.6c1.2,0,2.1,1,2.1,2.1v8.6
			C510.8,98.8,509.9,99.7,508.7,99.7z"/>
		<path class="st39" d="M526.8,99.7h-8.6c-1.2,0-2.1-1-2.1-2.1V89c0-1.2,1-2.1,2.1-2.1h8.6c1.2,0,2.1,1,2.1,2.1v8.6
			C528.9,98.8,528,99.7,526.8,99.7z"/>
		<path class="st83" d="M544.9,99.7h-8.6c-1.2,0-2.1-1-2.1-2.1V89c0-1.2,1-2.1,2.1-2.1h8.6c1.2,0,2.1,1,2.1,2.1v8.6
			C547,98.8,546.1,99.7,544.9,99.7z"/>
		<path class="st83" d="M563,99.7h-8.6c-1.2,0-2.1-1-2.1-2.1V89c0-1.2,1-2.1,2.1-2.1h8.6c1.2,0,2.1,1,2.1,2.1v8.6
			C565.1,98.8,564.2,99.7,563,99.7z"/>
		<path class="st83" d="M581.1,99.7h-8.6c-1.2,0-2.1-1-2.1-2.1V89c0-1.2,1-2.1,2.1-2.1h8.6c1.2,0,2.1,1,2.1,2.1v8.6
			C583.2,98.8,582.3,99.7,581.1,99.7z"/>
		<path class="st83" d="M490.6,118H482c-1.2,0-2.1-1-2.1-2.1v-8.6c0-1.2,1-2.1,2.1-2.1h8.6c1.2,0,2.1,1,2.1,2.1v8.6
			C492.7,117,491.8,118,490.6,118z"/>
		<path class="st39" d="M508.7,118h-8.6c-1.2,0-2.1-1-2.1-2.1v-8.6c0-1.2,1-2.1,2.1-2.1h8.6c1.2,0,2.1,1,2.1,2.1v8.6
			C510.8,117,509.9,118,508.7,118z"/>
		<path class="st83" d="M526.8,118h-8.6c-1.2,0-2.1-1-2.1-2.1v-8.6c0-1.2,1-2.1,2.1-2.1h8.6c1.2,0,2.1,1,2.1,2.1v8.6
			C528.9,117,528,118,526.8,118z"/>
		<path class="st39" d="M544.9,118h-8.6c-1.2,0-2.1-1-2.1-2.1v-8.6c0-1.2,1-2.1,2.1-2.1h8.6c1.2,0,2.1,1,2.1,2.1v8.6
			C547,117,546.1,118,544.9,118z"/>
		<path class="st39" d="M563,118h-8.6c-1.2,0-2.1-1-2.1-2.1v-8.6c0-1.2,1-2.1,2.1-2.1h8.6c1.2,0,2.1,1,2.1,2.1v8.6
			C565.1,117,564.2,118,563,118z"/>
		<path class="st83" d="M581.1,118h-8.6c-1.2,0-2.1-1-2.1-2.1v-8.6c0-1.2,1-2.1,2.1-2.1h8.6c1.2,0,2.1,1,2.1,2.1v8.6
			C583.2,117,582.3,118,581.1,118z"/>
		<path class="st83" d="M490.6,136.2H482c-1.2,0-2.1-1-2.1-2.1v-8.6c0-1.2,1-2.1,2.1-2.1h8.6c1.2,0,2.1,1,2.1,2.1v8.6
			C492.7,135.2,491.8,136.2,490.6,136.2z"/>
		<path class="st83" d="M508.7,136.2h-8.6c-1.2,0-2.1-1-2.1-2.1v-8.6c0-1.2,1-2.1,2.1-2.1h8.6c1.2,0,2.1,1,2.1,2.1v8.6
			C510.8,135.2,509.9,136.2,508.7,136.2z"/>
		<path class="st39" d="M526.8,136.2h-8.6c-1.2,0-2.1-1-2.1-2.1v-8.6c0-1.2,1-2.1,2.1-2.1h8.6c1.2,0,2.1,1,2.1,2.1v8.6
			C528.9,135.2,528,136.2,526.8,136.2z"/>
		<path class="st83" d="M544.9,136.2h-8.6c-1.2,0-2.1-1-2.1-2.1v-8.6c0-1.2,1-2.1,2.1-2.1h8.6c1.2,0,2.1,1,2.1,2.1v8.6
			C547,135.2,546.1,136.2,544.9,136.2z"/>
		<polyline class="st84" points="483.8,64.9 531.2,39.7 578.6,64.9 		"/>
		<circle class="st9" cx="531.2" cy="40.3" r="2"/>
	</g>
	<g>
		<line class="st85" x1="211.3" y1="229.7" x2="206.4" y2="203.8"/>
		<line class="st11" x1="204.7" y1="205.9" x2="208.7" y2="205.2"/>
	</g>
	<circle class="st86" cx="97.4" cy="198.7" r="3.4"/>
</g>
</svg>
